<?xml version="1.0" standalone="no"?>
<!DOCTYPE svg PUBLIC "-//W3C//DTD SVG 20010904//EN"
 "http://www.w3.org/TR/2001/REC-SVG-20010904/DTD/svg10.dtd">
<svg version="1.0" xmlns="http://www.w3.org/2000/svg"
 width="64.000000pt" height="100.000000pt" viewBox="0 0 64.000000 100.000000"
 preserveAspectRatio="xMidYMid meet">

<g transform="translate(0.000000,495.000000) scale(0.100000,-0.100000)"
fill="#000000" stroke="none">
<path d="M0 2475 l0 -2475 4785 0 4785 0 0 2475 0 2475 -2205 0 c-1213 0
-2205 -2 -2205 -3 0 -2 72 -37 160 -77 l160 -73 0 -246 0 -247 285 -99 285
-98 104 -181 c57 -100 101 -184 98 -187 -4 -3 -240 -93 -526 -198 -429 -160
-521 -191 -531 -179 -7 7 -202 257 -433 555 l-421 543 -364 -413 -365 -412
-132 -58 c-72 -33 -133 -57 -136 -55 -4 4 919 1104 970 1156 l23 23 374 -130
c206 -71 382 -133 392 -136 16 -7 17 9 17 254 l0 261 -2560 0 -2560 0 0 -2475z
m4270 1505 l0 -130 -85 0 -85 0 0 56 c0 64 18 109 59 148 22 21 79 50 109 56
1 0 2 -58 2 -130z m118 106 c30 -16 74 -60 90 -91 6 -12 14 -49 18 -83 l7 -62
-87 0 -86 0 0 125 c0 137 2 140 58 111z m-1476 -530 l3 -275 360 155 c198 86
390 168 427 184 l66 28 597 -640 c328 -351 594 -642 591 -645 -3 -3 -57 -2
-120 2 l-115 7 -491 524 c-270 288 -495 524 -500 524 -4 0 -217 -249 -472
-554 l-463 -555 -55 -16 c-539 -156 -963 -347 -1398 -632 -79 -51 -177 -118
-218 -148 -41 -30 -74 -51 -74 -45 0 6 239 338 531 738 l530 727 220 94 219
94 0 282 0 281 173 71 c94 39 175 71 179 72 4 1 9 -123 10 -273z m1358 94 l0
-140 -85 0 -85 0 0 140 0 140 85 0 85 0 0 -140z m230 0 l0 -140 -85 0 -85 0 0
140 0 140 85 0 85 0 0 -140z m2650 -556 c311 -343 591 -653 623 -689 l59 -65
-131 0 -130 0 -531 570 c-292 314 -533 570 -536 570 -3 0 -277 -225 -609 -500
l-604 -500 -120 0 c-67 0 -121 4 -121 9 0 5 243 219 540 476 298 257 539 469
537 472 -3 2 -22 0 -43 -6 -29 -8 -185 -132 -582 -462 -299 -247 -547 -449
-551 -447 -14 6 -411 417 -411 425 0 10 1997 771 2025 771 14 0 191 -188 585
-624z m-3390 -124 l0 -130 -85 0 -85 0 0 50 c0 86 47 165 115 196 55 24 55 25
55 -116z m107 119 c70 -26 122 -110 123 -196 l0 -53 -85 0 -85 0 0 130 c0 74
4 130 9 130 5 0 22 -5 38 -11z m2643 -139 l0 -130 -90 0 -90 0 0 36 c0 91 46
174 115 209 64 32 65 29 65 -115z m128 111 c66 -34 99 -88 109 -181 l6 -60
-92 0 -91 0 0 130 c0 145 0 146 68 111z m-2878 -411 l0 -140 -85 0 -85 0 0
140 0 140 85 0 85 0 0 -140z m230 0 l0 -140 -85 0 -85 0 0 140 0 140 85 0 85
0 0 -140z m2520 -35 l0 -145 -90 0 -90 0 0 145 0 145 90 0 90 0 0 -145z m240
0 l0 -145 -90 0 -90 0 0 145 0 145 90 0 90 0 0 -145z m-2800 -309 c115 -21
186 -52 240 -105 56 -54 75 -108 66 -188 l-6 -52 47 15 c220 68 689 174 943
213 439 67 909 89 1281 61 566 -44 1079 -173 1605 -405 173 -77 311 -147 298
-152 -6 -2 -61 12 -122 31 -371 117 -800 209 -1162 250 -520 59 -1053 45
-1550 -40 -615 -105 -1261 -341 -1834 -668 -82 -47 -151 -84 -153 -82 -2 2 19
44 47 92 130 228 131 352 2 430 -87 53 -163 67 -382 72 -592 13 -1204 -134
-1750 -420 -355 -186 -665 -403 -1123 -786 -82 -68 -151 -121 -154 -118 -7 7
173 199 354 377 734 722 1495 1169 2348 1379 168 41 404 85 540 99 129 13 382
12 465 -3z m4845 -1003 c-11 -196 -14 -293 -9 -293 3 0 15 11 25 24 47 59 179
85 281 54 56 -17 132 -88 165 -156 25 -51 27 -68 28 -162 0 -90 -3 -112 -23
-152 -36 -72 -95 -132 -153 -157 -98 -42 -238 -23 -295 40 -18 20 -18 20 -29
-18 l-11 -38 -74 0 -75 0 3 280 c1 154 -1 359 -6 455 -6 113 -6 179 1 188 6 8
38 12 93 12 l83 0 -4 -77z m-6532 33 c116 -56 177 -164 177 -310 0 -141 -45
-239 -135 -292 -68 -39 -100 -45 -267 -44 l-158 0 0 -124 0 -123 -87 3 c-47 2
-90 7 -94 11 -4 5 -3 107 2 228 9 205 7 357 -7 582 l-6 92 144 4 c78 2 195 3
259 2 104 -1 121 -4 172 -29z m4866 -148 l-4 -183 235 0 235 0 -4 183 -3 182
96 0 96 0 -5 -172 c-3 -95 -8 -193 -10 -217 -3 -24 0 -152 6 -283 6 -132 8
-242 6 -245 -3 -2 -45 -5 -94 -5 l-88 0 -1 184 c-1 100 -2 189 -2 196 -3 18
-458 18 -465 0 -2 -7 -2 -95 1 -195 4 -152 3 -183 -9 -184 -64 -2 -172 0 -175
4 -3 2 0 105 5 228 7 144 7 297 1 429 -5 113 -10 217 -10 233 l0 27 96 0 96 0
-3 -182z m-1443 95 c14 -5 15 -18 9 -101 -6 -74 -4 -96 6 -103 8 -5 51 -9 96
-9 l81 0 -5 -62 c-3 -35 -7 -65 -9 -67 -2 -2 -42 -3 -89 -2 l-85 2 0 -169 c0
-210 -2 -208 121 -197 l82 7 -7 -32 c-3 -18 -6 -45 -6 -61 0 -24 -5 -30 -39
-39 -63 -17 -204 -14 -240 4 -63 33 -66 48 -63 272 3 218 3 219 -53 226 -25 2
-31 8 -34 33 -4 26 -6 25 -10 -15 l-6 -45 -82 -5 c-129 -8 -127 -3 -133 -263
l-5 -212 -54 -3 c-30 -2 -65 -1 -77 2 l-23 6 2 228 c1 159 -2 252 -12 309 -8
46 -13 85 -10 87 2 2 39 7 82 11 l77 7 0 -29 c0 -17 3 -32 6 -36 3 -3 30 7 58
24 44 24 64 29 119 29 56 0 67 -3 67 -17 0 -13 3 -14 12 -5 7 7 25 12 40 12
32 0 31 -4 28 117 -1 50 1 97 5 104 8 11 114 6 151 -8z m-881 -193 c97 -47
164 -150 168 -258 3 -98 -5 -102 -278 -123 -88 -6 -161 -13 -163 -15 -2 -1 4
-16 12 -33 52 -100 200 -121 318 -45 21 13 44 24 51 24 8 0 24 -22 37 -50 23
-49 23 -50 4 -71 -24 -27 -93 -67 -136 -80 -18 -5 -69 -10 -114 -10 -146 0
-239 52 -296 169 -31 62 -33 74 -33 167 0 87 3 107 26 155 36 76 89 133 151
164 68 34 189 37 253 6z m-1420 -14 c61 -28 126 -93 157 -155 20 -40 23 -61
23 -156 0 -100 -3 -115 -27 -160 -34 -65 -100 -129 -161 -155 -94 -42 -243
-23 -320 41 -166 137 -169 403 -6 542 56 48 108 65 204 66 64 1 90 -4 130 -23z
m433 -24 l3 -43 31 26 c57 48 102 65 175 65 87 -1 143 -25 205 -91 64 -68 90
-140 90 -244 0 -104 -26 -176 -90 -244 -60 -64 -122 -92 -205 -92 -73 -1 -119
15 -170 61 l-37 32 0 -134 c0 -74 -2 -137 -4 -139 -2 -2 -38 -3 -79 -1 l-75 4
-5 391 c-3 216 -7 403 -9 417 -3 23 1 25 47 31 28 4 66 6 85 5 34 -1 35 -2 38
-44z m-1148 10 c0 -16 3 -31 6 -35 3 -3 30 7 58 24 44 24 64 29 120 29 l68 0
-7 -72 c-4 -40 -9 -76 -12 -80 -2 -5 -37 -8 -78 -8 -64 0 -78 -3 -102 -24
l-28 -24 -5 -214 -5 -213 -54 -3 c-30 -2 -66 0 -79 3 l-24 6 7 182 c6 169 4
208 -22 404 l-5 42 48 4 c119 9 114 10 114 -21z m3410 -127 c5 -120 7 -134 34
-180 38 -67 104 -155 116 -155 5 0 35 44 67 97 l58 97 5 136 5 135 69 3 c49 2
72 -1 77 -10 5 -7 9 -77 9 -154 l0 -141 -109 -166 c-154 -233 -237 -344 -263
-351 -13 -3 -58 -6 -101 -6 l-78 0 -14 33 c-7 18 -17 45 -20 59 -6 25 -5 27
42 33 81 10 91 14 118 43 48 51 45 62 -48 185 -134 177 -127 158 -127 330 l0
148 78 -3 77 -3 5 -130z m1994 58 c-14 -123 -11 -313 5 -351 28 -68 128 -84
198 -33 72 52 73 55 73 252 0 98 3 184 6 193 5 13 22 16 83 16 l77 0 -2 -307
-2 -308 -79 0 -78 0 -5 43 -5 43 -35 -26 c-61 -47 -119 -66 -193 -66 -121 0
-186 51 -207 160 -19 99 -8 414 16 452 3 5 39 9 81 9 l75 0 -8 -77z"/>
<path d="M8895 951 c-27 -12 -74 -59 -93 -96 -8 -17 -15 -55 -15 -86 0 -98 63
-177 149 -187 56 -6 86 2 125 35 103 87 85 267 -33 329 -29 15 -101 18 -133 5z"/>
<path d="M1887 1207 c-16 -11 -17 -32 -15 -192 l3 -180 135 -2 c124 -3 138 -1
174 20 55 31 81 85 81 167 0 82 -31 141 -91 176 -37 22 -52 24 -155 24 -77 0
-121 -4 -132 -13z"/>
<path d="M4604 951 c-36 -22 -74 -79 -74 -111 l0 -23 123 6 c67 3 130 9 140
13 28 10 13 52 -33 97 -33 31 -46 37 -82 37 -25 0 -56 -8 -74 -19z"/>
<path d="M3175 931 c-83 -51 -116 -151 -80 -239 31 -74 86 -112 161 -112 169
0 230 250 85 347 -43 29 -122 31 -166 4z"/>
<path d="M3914 940 c-17 -11 -43 -43 -58 -71 -25 -44 -28 -59 -24 -119 6 -109
68 -180 160 -180 179 0 231 290 67 375 -40 21 -108 19 -145 -5z"/>
</g>
</svg>
